<svg width="18" height="18" viewBox="0 0 18 18" fill="none" xmlns="http://www.w3.org/2000/svg">
<g clip-path="url(#clip0_86_7)">
<path d="M8.99996 17.8385C13.8814 17.8385 17.8385 13.8813 17.8385 8.99994C17.8385 4.11854 13.8814 0.161377 8.99996 0.161377C4.11856 0.161377 0.1614 4.11854 0.1614 8.99994C0.1614 13.8813 4.11856 17.8385 8.99996 17.8385Z" fill="white"/>
<path d="M11.0206 3.70422H9.4158C7.8389 3.70422 6.50163 4.90453 6.50163 7.23486C6.50163 8.63285 7.1492 9.66359 8.30338 10.1721L6.14964 14.0698C6.07915 14.197 6.14964 14.2957 6.26221 14.2957H7.26181C7.34618 14.2957 7.40279 14.2676 7.43091 14.197L9.38767 10.3698H10.0915V14.197C10.0915 14.2391 10.1336 14.2957 10.1899 14.2957H11.0629C11.1473 14.2957 11.1755 14.2533 11.1755 14.183V3.84545C11.1755 3.74659 11.1192 3.70422 11.0206 3.70422ZM10.0915 9.46612H9.50024C8.57117 9.46612 7.67025 8.78827 7.67025 7.09367C7.67025 5.32813 8.51485 4.60795 9.3735 4.60795H10.0915V9.46612H10.0915Z" fill="#FC3F1D"/>
</g>
<defs>
<clipPath id="clip0_86_7">
<rect width="18" height="18" fill="white"/>
</clipPath>
</defs>
</svg>
