<svg width="18" height="18" viewBox="0 0 18 18" fill="none" xmlns="http://www.w3.org/2000/svg">
<path d="M16.1617 7.34775C13.7115 7.34655 11.2613 7.34715 8.81106 7.34744C8.81138 8.36371 8.80986 9.37999 8.81167 10.396C10.2307 10.3956 11.6496 10.3953 13.0684 10.396C12.9039 11.3698 12.3252 12.2604 11.5044 12.8086C10.9885 13.1555 10.3957 13.3807 9.78461 13.4878C9.16955 13.5927 8.53401 13.6062 7.92048 13.482C7.29657 13.3575 6.70101 13.0975 6.18146 12.7311C5.35069 12.1475 4.71668 11.2935 4.39115 10.3325C4.05829 9.35494 4.05584 8.26726 4.39268 7.29067C4.62639 6.60237 5.01538 5.96655 5.5264 5.44912C6.15672 4.80384 6.97621 4.34255 7.85914 4.15338C8.61517 3.992 9.41237 4.0228 10.1526 4.24673C10.7817 4.43773 11.3616 4.78247 11.8367 5.23614C12.3169 4.75866 12.7947 4.27845 13.274 3.80007C13.5254 3.54258 13.7896 3.29636 14.0331 3.03186C13.3051 2.35819 12.4518 1.81667 11.5194 1.47434C9.84074 0.856555 7.94763 0.843442 6.25772 1.42834C4.35331 2.08032 2.73172 3.50448 1.83263 5.30456C1.51961 5.92483 1.29108 6.58687 1.15379 7.26784C0.808418 8.96445 1.04914 10.7734 1.83171 12.3187C2.34031 13.3273 3.06947 14.224 3.95396 14.9269C4.7884 15.5923 5.76102 16.0838 6.79226 16.3581C8.09349 16.7072 9.4786 16.6992 10.7884 16.4012C11.9722 16.1287 13.0922 15.5631 13.9864 14.7375C14.9316 13.8689 15.6058 12.7244 15.9628 11.4946C16.3521 10.1531 16.4058 8.72099 16.1617 7.34775Z" fill="white"/>
</svg>
