<svg width="18" height="18" viewBox="0 0 18 18" fill="none" xmlns="http://www.w3.org/2000/svg">
<path fill-rule="evenodd" clip-rule="evenodd" d="M17.0402 4.64062C17.1654 4.24406 17.0402 3.95578 16.4865 3.95578H14.6454C14.181 3.95578 13.9665 4.2082 13.8414 4.4782C13.8414 4.4782 12.8943 6.78445 11.5717 8.27965C11.1428 8.71207 10.9462 8.85621 10.7139 8.85621C10.5887 8.85621 10.4277 8.71207 10.4277 8.31586V4.62199C10.4277 4.15371 10.285 3.9375 9.89156 3.9375H6.99609C6.70992 3.9375 6.53133 4.15371 6.53133 4.36992C6.53133 4.82027 7.19262 4.92855 7.26398 6.18961V8.92969C7.26398 9.52418 7.15852 9.63281 6.92438 9.63281C6.29895 9.63281 4.77984 7.30863 3.86859 4.66031C3.69141 4.13578 3.51141 3.9375 3.04664 3.9375H1.18793C0.651797 3.9375 0.5625 4.18957 0.5625 4.45992C0.5625 4.94648 1.18793 7.39652 3.47555 10.6393C4.99465 12.8542 7.15711 14.0446 9.10512 14.0446C10.285 14.0446 10.4277 13.7742 10.4277 13.3239V11.6483C10.4277 11.108 10.5349 11.018 10.9104 11.018C11.1783 11.018 11.661 11.1618 12.7512 12.2249C14.002 13.4859 14.2165 14.0625 14.9136 14.0625H16.7544C17.2905 14.0625 17.5409 13.7921 17.3978 13.2697C17.2371 12.7473 16.6293 11.9907 15.8428 11.09C15.4139 10.5859 14.7705 10.0273 14.574 9.75691C14.3061 9.39656 14.3775 9.25242 14.574 8.92828C14.5561 8.92828 16.8082 5.72133 17.0402 4.63922" fill="white"/>
</svg>
