<svg width="128" height="128" viewBox="0 0 128 128" fill="none" xmlns="http://www.w3.org/2000/svg">
<path d="M48.5012 60.063H74.7647C82.0687 60.063 87.897 54.0378 87.897 46.7095V21.6507C87.897 14.5195 81.8965 9.183 74.7647 7.978C65.9612 6.527 56.3952 6.60075 48.5012 8.00225C37.3857 9.96975 35.3695 14.0767 35.3695 21.6755V27.0387H61.6575V35.0285H25.5082C17.8605 35.0285 11.171 39.627 9.08098 48.3573C6.67098 58.366 6.57273 64.6123 9.08098 75.0638C10.95 82.835 15.401 88.3923 23.049 88.3923H32.0742V76.392C32.074 67.7113 39.5745 60.063 48.5012 60.063Z" fill="#347AB4"/>
<path d="M118.744 52.343C116.85 44.7442 113.26 39.0143 105.612 39.0143H95.7512V50.6707C95.7512 59.7205 88.0782 67.3435 79.3237 67.3435H53.06C45.879 67.3435 39.928 73.492 39.928 80.697V105.731C39.928 112.862 46.125 117.043 53.06 119.085C61.3717 121.519 69.3637 121.962 79.3235 119.085C85.939 117.166 92.4557 113.306 92.4557 105.731V100.482H66.2167V92.378H105.612C113.26 92.378 116.088 87.0415 118.743 79.0495C121.498 70.811 121.375 62.8925 118.744 52.343Z" fill="#FFCA1D"/>
<path d="M46.8537 22.3985C44.234 22.3985 42.11 20.2508 42.11 17.6075C42.1335 14.9405 44.234 12.7928 46.8537 12.7928C49.45 12.7928 51.5977 14.964 51.5977 17.6075C51.5975 20.2508 49.4735 22.3985 46.8537 22.3985Z" fill="white"/>
<path d="M78.727 115.019C76.1072 115.019 73.983 112.871 73.983 110.228C74.0067 107.561 76.107 105.413 78.727 105.413C81.3232 105.413 83.471 107.585 83.471 110.228C83.471 112.871 81.347 115.019 78.727 115.019Z" fill="white"/>
</svg>
