<svg width="128" height="128" viewBox="0 0 128 128" fill="none" xmlns="http://www.w3.org/2000/svg">
<g clip-path="url(#clip0_87_327)">
<path d="M106.133 102.4L83.2 64L106.133 25.6L117.333 64L106.133 102.4ZM55.4667 98.6667L26.6667 70.4H72.5333L95.4667 108.8L55.4667 98.6667ZM55.4667 28.8L95.4667 18.6667L72.5333 57.0667H26.1333C26.1333 57.6 55.4667 28.8 55.4667 28.8ZM114.133 0L61.8667 13.3333L53.8667 26.6667H38.4L0 64L38.4 101.333H53.8667L61.3333 114.667L113.6 128L127.467 77.3333L120 64L128 50.6667L114.133 0Z" fill="black"/>
</g>
<defs>
<clipPath id="clip0_87_327">
<rect width="128" height="128" fill="white"/>
</clipPath>
</defs>
</svg>
