<svg width="48" height="48" viewBox="0 0 48 48" fill="none" xmlns="http://www.w3.org/2000/svg">
<path d="M24 45.75C36.0122 45.75 45.75 36.0122 45.75 24C45.75 11.9878 36.0122 2.25 24 2.25C11.9878 2.25 2.25 11.9878 2.25 24C2.25 36.0122 11.9878 45.75 24 45.75Z" fill="#F8DC25"/>
<path d="M31.875 19.5H40.5" stroke="#00ADFE" stroke-width="4" stroke-linecap="round" stroke-linejoin="round"/>
<path d="M7.5 19.5H16.125" stroke="#00ADFE" stroke-width="4" stroke-linecap="round" stroke-linejoin="round"/>
<path opacity="0.7" d="M19.875 40.125C15.0239 40.131 10.2617 38.8235 6.09375 36.3413C8.85596 40.3419 12.8789 43.3017 17.5202 44.7483C22.1616 46.1948 27.1537 46.0447 31.6998 44.3219C36.2458 42.599 40.0836 39.4028 42.6004 35.2435C45.1173 31.0841 46.168 26.2015 45.585 21.375C43.8376 26.8203 40.4063 31.5702 35.7857 34.9399C31.1651 38.3097 25.5938 40.1253 19.875 40.125Z" fill="#F2BC0F"/>
<path d="M32.25 44.1262C35.4321 42.8178 38.2592 40.7746 40.5 38.1637V18.375H32.25V44.1262Z" fill="#00ADFE"/>
<path opacity="0.4" d="M40.5 38.1637V30.5437C38.2078 33.2568 35.4046 35.493 32.25 37.125V44.1262C33.4306 43.6436 34.5663 43.0576 35.6438 42.375L35.7225 42.3225C36.065 42.1075 36.4075 41.875 36.75 41.625C38.1307 40.6214 39.3892 39.4597 40.5 38.1637Z" fill="#356CB6"/>
<path d="M29.625 15.375C29.625 16.1706 29.9411 16.9337 30.5037 17.4963C31.0663 18.0589 31.8294 18.375 32.625 18.375H40.5" stroke="#393C54" stroke-width="4" stroke-miterlimit="10" stroke-linecap="round"/>
<path d="M7.5 38.1637C9.74083 40.7746 12.5679 42.8178 15.75 44.1262V18.375H7.5V38.1637Z" fill="#00ADFE"/>
<path opacity="0.4" d="M15.75 39.8063C12.8727 39.3662 10.0863 38.4606 7.5 37.125V38.1675C7.775 38.4875 8.0575 38.7975 8.3475 39.0975C8.64 39.4 8.94125 39.695 9.25125 39.9825C9.56125 40.27 9.88 40.5475 10.2075 40.815C10.5625 41.105 10.91 41.375 11.25 41.625C12.6452 42.6358 14.1558 43.4767 15.75 44.13V39.8063Z" fill="#356CB6"/>
<path d="M18.375 15.375C18.375 16.1706 18.0589 16.9337 17.4963 17.4963C16.9337 18.0589 16.1706 18.375 15.375 18.375H7.5" stroke="#393C54" stroke-width="4" stroke-miterlimit="10" stroke-linecap="round"/>
<path d="M18.3337 27C18.2317 27.0004 18.1307 26.9789 18.0377 26.9369C17.9447 26.895 17.8618 26.8335 17.7946 26.7567C17.7274 26.6799 17.6775 26.5895 17.6482 26.4918C17.6189 26.394 17.611 26.2911 17.625 26.19C17.8107 24.6297 18.5622 23.1917 19.7371 22.1484C20.912 21.105 22.4287 20.5288 24 20.5288C25.5713 20.5288 27.088 21.105 28.2629 22.1484C29.4378 23.1917 30.1893 24.6297 30.375 26.19C30.389 26.2911 30.381 26.394 30.3518 26.4918C30.3225 26.5895 30.2726 26.6799 30.2054 26.7567C30.1382 26.8335 30.0553 26.895 29.9623 26.9369C29.8692 26.9789 29.7683 27.0004 29.6662 27H18.3337Z" fill="#393C54"/>
<path d="M28.3125 27C28.0093 26.0963 27.4299 25.3107 26.6561 24.7541C25.8823 24.1976 24.9532 23.8981 24 23.8981C23.0468 23.8981 22.1177 24.1976 21.3439 24.7541C20.5701 25.3107 19.9907 26.0963 19.6875 27H28.3125Z" fill="#F85565"/>
<path d="M21.75 29.25H26.25" stroke="#F2BC0F" stroke-width="4" stroke-linecap="round" stroke-linejoin="round"/>
</svg>
