<svg width="48" height="48" viewBox="0 0 48 48" fill="none" xmlns="http://www.w3.org/2000/svg">
<path d="M24 45.75C36.0122 45.75 45.75 36.0122 45.75 24C45.75 11.9878 36.0122 2.25 24 2.25C11.9878 2.25 2.25 11.9878 2.25 24C2.25 36.0122 11.9878 45.75 24 45.75Z" fill="#F8DC25"/>
<path opacity="0.7" d="M19.875 40.125C15.0239 40.131 10.2617 38.8235 6.09375 36.3413C8.85596 40.3419 12.8789 43.3017 17.5202 44.7483C22.1616 46.1948 27.1537 46.0447 31.6998 44.3219C36.2458 42.599 40.0836 39.4028 42.6004 35.2435C45.1173 31.0841 46.168 26.2015 45.585 21.375C43.8376 26.8203 40.4063 31.5702 35.7857 34.9399C31.1651 38.3097 25.5938 40.1253 19.875 40.125Z" fill="#F2BC0F"/>
<path d="M23.4375 39.9375C23.4375 39.9375 29.4375 40.5 31.875 35.8125" stroke="#393C54" stroke-width="6" stroke-miterlimit="10" stroke-linecap="round"/>
<path d="M12.75 28.5C14.1997 28.5 15.375 27.3247 15.375 25.875C15.375 24.4253 14.1997 23.25 12.75 23.25C11.3003 23.25 10.125 24.4253 10.125 25.875C10.125 27.3247 11.3003 28.5 12.75 28.5Z" fill="#393C54"/>
<path d="M32.625 26.625C32.625 25.9288 32.9016 25.2611 33.3938 24.7688C33.8861 24.2766 34.5538 24 35.25 24C35.9462 24 36.6139 24.2766 37.1062 24.7688C37.5984 25.2611 37.875 25.9288 37.875 26.625" stroke="#393C54" stroke-width="4" stroke-miterlimit="10" stroke-linecap="round"/>
<path opacity="0.7" fill-rule="evenodd" clip-rule="evenodd" d="M11.2988 18.375C14.9101 18.2025 19.1251 18.9338 19.9238 21.375C20.2726 22.455 19.9238 23.7113 19.7138 24.585C19.1251 27.165 18.1951 28.9013 16.0726 30C12.4651 31.8375 8.02133 30.93 6.28883 28.1738C5.32508 26.625 4.36133 23.0588 5.34008 20.895C6.18008 19.0425 8.35883 18.5288 11.2988 18.375Z" fill="#6B718E"/>
<path d="M6.5251 24.2475C6.38046 23.4531 6.40088 22.6374 6.5851 21.8513" stroke="white" stroke-width="2" stroke-linecap="round" stroke-linejoin="round"/>
<path d="M7.61621 20.625C8.01351 20.425 8.43612 20.28 8.87246 20.1938" stroke="white" stroke-width="2" stroke-linecap="round" stroke-linejoin="round"/>
<path opacity="0.7" fill-rule="evenodd" clip-rule="evenodd" d="M35.6249 18.375C38.5387 18.2363 41.2949 18.8213 42.3749 20.3475C43.7437 22.2863 42.8812 26.4113 41.7449 28.2225C40.1099 30.81 35.8612 31.9725 32.0362 30.0975C29.7862 29.01 28.7024 27.0113 28.1212 24.2663C27.0299 19.2375 30.8737 18.6113 35.6249 18.375Z" fill="#6B718E"/>
<path d="M29.5651 23.9625C29.3101 22.7587 29.3888 21.8775 29.8013 21.3375" stroke="white" stroke-width="2" stroke-linecap="round" stroke-linejoin="round"/>
<path d="M31.125 20.52C31.6231 20.3505 32.135 20.225 32.655 20.145" stroke="white" stroke-width="2" stroke-linecap="round" stroke-linejoin="round"/>
<path d="M37.0163 16.9763C34.4541 16.9471 31.899 17.2509 29.4151 17.88C27.6151 18.3563 25.9238 19.1925 23.9963 19.1888C23.8126 19.1888 23.6213 19.1888 23.4338 19.1625C21.4201 18.9863 19.5001 18.0375 17.4563 17.5763C15.3821 17.1347 13.2658 16.921 11.1451 16.9388C8.54327 16.9576 5.94633 17.1669 3.37509 17.565C2.88771 17.6384 2.44606 17.8932 2.13868 18.2785C1.83129 18.6638 1.68088 19.151 1.71759 19.6425C1.71759 19.7738 1.73634 19.905 1.74759 20.0175C1.77244 20.5188 1.99332 20.9901 2.36259 21.33C3.65634 22.455 3.53634 25.1925 3.93759 26.88C4.25259 28.2075 4.75509 29.5763 5.76384 30.63C7.85259 32.775 13.0313 33.255 16.3876 31.8638C19.4138 30.585 20.6251 28.2713 21.7501 25.0388C22.0726 24.1125 22.5001 22.68 23.1601 22.3838C25.5563 21.3188 26.0551 24.585 26.5351 25.905C27.9826 29.895 30.3863 32.3738 35.3213 32.655C39.9076 32.9175 42.6676 31.1775 43.7701 28.0013C44.3963 26.2013 44.1188 23.8163 44.9738 22.1925C45.1063 21.9472 45.289 21.7325 45.5101 21.5625C45.7216 21.3897 45.8948 21.1748 46.0188 20.9314C46.1428 20.688 46.2147 20.4215 46.2301 20.1488C46.2301 19.98 46.2301 19.8075 46.2563 19.6313C46.2734 19.1496 46.1122 18.6786 45.8036 18.3084C45.495 17.9382 45.0607 17.6949 44.5838 17.625C42.0809 17.2217 39.5514 17.0049 37.0163 16.9763ZM19.7063 24.6113C19.1251 27.165 18.1951 28.9013 16.0726 30C12.4651 31.8375 8.02134 30.93 6.28884 28.1738C5.32884 26.625 4.36134 23.0588 5.34009 20.895C6.18009 19.0425 8.34009 18.5288 11.2951 18.39C14.9063 18.2175 19.1213 18.9488 19.9201 21.39C20.2501 22.5 19.9088 23.7375 19.7063 24.6113ZM41.7188 28.2188C40.0838 30.8063 35.8351 31.9688 32.0101 30.0938C29.7601 29.0063 28.6763 27.0075 28.0951 24.2625C27.0301 19.2375 30.8738 18.6113 35.6251 18.375C38.5388 18.2363 41.2951 18.8213 42.3751 20.3475C43.7138 22.2975 42.8551 26.4263 41.7188 28.2188Z" fill="#393C54"/>
<path opacity="0.5" d="M31.125 12L37.875 13.875" stroke="#F2BC0F" stroke-width="4" stroke-linecap="round" stroke-linejoin="round"/>
<path opacity="0.5" d="M10.125 13.875L16.875 12" stroke="#F2BC0F" stroke-width="4" stroke-linecap="round" stroke-linejoin="round"/>
</svg>
