<svg width="62" height="62" viewBox="0 0 62 62" fill="none" xmlns="http://www.w3.org/2000/svg">
<g clip-path="url(#clip0_3_21)">
<path d="M31 62C48.1208 62 62 48.1208 62 31C62 13.8792 48.1208 0 31 0C13.8792 0 0 13.8792 0 31C0 48.1208 13.8792 62 31 62Z" fill="#E0A64F"/>
<path d="M33.557 14.2083L11.625 22.4328V39.5672L28.074 47.7917L50.006 39.5672V22.4328L33.557 14.2083Z" fill="#9CBEFF"/>
<path d="M50.006 39.5672L28.074 47.7917V30.6574L50.006 22.4329V39.5672Z" fill="#1A65AB"/>
<path d="M11.625 39.5672L28.074 47.7917V30.6574L11.625 22.4329V39.5672Z" fill="#058FDC"/>
<path d="M33.5569 23.8036V26.5451C33.5569 27.299 31.7132 27.9158 29.4446 27.9158C27.1761 27.9158 25.3324 27.299 25.3324 26.5451V23.8036C25.3324 24.5575 27.1761 25.1743 29.4446 25.1743C31.7132 25.1743 33.5569 24.5575 33.5569 23.8036Z" fill="#1A65AB"/>
<path d="M29.4446 22.4329C27.1761 22.4329 25.3324 23.0497 25.3324 23.8036C25.3324 24.5575 27.1761 25.1744 29.4446 25.1744C31.7132 25.1744 33.5569 24.5575 33.5569 23.8036C33.5569 23.0497 31.7132 22.4329 29.4446 22.4329Z" fill="#9CBEFF"/>
<path d="M25.3325 19.6913V22.4328C25.3325 23.1868 23.4889 23.8036 21.2203 23.8036C18.9517 23.8036 17.108 23.1868 17.108 22.4328V19.6913C17.108 20.4453 18.9517 21.0621 21.2203 21.0621C23.4889 21.0621 25.3325 20.4453 25.3325 19.6913Z" fill="#1A65AB"/>
<path d="M21.2203 18.3205C18.9517 18.3205 17.108 18.9374 17.108 19.6913C17.108 20.4452 18.9517 21.062 21.2203 21.062C23.4889 21.062 25.3325 20.4452 25.3325 19.6913C25.3325 18.9374 23.4889 18.3205 21.2203 18.3205Z" fill="#9CBEFF"/>
<path d="M36.2985 15.5791V18.3206C36.2985 19.0745 34.4549 19.6913 32.1863 19.6913C29.9177 19.6913 28.074 19.0745 28.074 18.3206V15.5791C28.074 16.333 29.9177 16.9498 32.1863 16.9498C34.4549 16.9498 36.2985 16.333 36.2985 15.5791Z" fill="#1A65AB"/>
<path d="M32.1863 14.2083C29.9177 14.2083 28.074 14.8252 28.074 15.5791C28.074 16.333 29.9177 16.9498 32.1863 16.9498C34.4549 16.9498 36.2985 16.333 36.2985 15.5791C36.2985 14.8252 34.4549 14.2083 32.1863 14.2083Z" fill="#9CBEFF"/>
<path d="M44.5229 19.6913V22.4328C44.5229 23.1868 42.6792 23.8036 40.4106 23.8036C38.1421 23.8036 36.2984 23.1868 36.2984 22.4328V19.6913C36.2984 20.4453 38.1421 21.0621 40.4106 21.0621C42.6792 21.0621 44.5229 20.4453 44.5229 19.6913Z" fill="#1A65AB"/>
<path d="M40.4106 18.3205C38.1421 18.3205 36.2984 18.9374 36.2984 19.6913C36.2984 20.4452 38.1421 21.062 40.4106 21.062C42.6792 21.062 44.5229 20.4452 44.5229 19.6913C44.5229 18.9374 42.6792 18.3205 40.4106 18.3205Z" fill="#9CBEFF"/>
</g>
<defs>
<clipPath id="clip0_3_21">
<rect width="62" height="62" fill="white"/>
</clipPath>
</defs>
</svg>
