<svg width="24" height="24" viewBox="0 0 24 24" fill="none" xmlns="http://www.w3.org/2000/svg">
<path d="M16.5 6.75C16.4297 6.81972 16.3739 6.90267 16.3358 6.99407C16.2978 7.08546 16.2782 7.18349 16.2782 7.2825C16.2782 7.38151 16.2978 7.47954 16.3358 7.57093C16.3739 7.66233 16.4297 7.74528 16.5 7.815L19.95 11.265H2.29501C2.0961 11.265 1.90534 11.344 1.76468 11.4847C1.62403 11.6253 1.54501 11.8161 1.54501 12.015C1.54501 12.2139 1.62403 12.4047 1.76468 12.5453C1.90534 12.686 2.0961 12.765 2.29501 12.765H19.935L16.5 16.1925C16.3603 16.333 16.2819 16.5231 16.2819 16.7213C16.2819 16.9194 16.3603 17.1095 16.5 17.25C16.6405 17.3897 16.8306 17.4681 17.0288 17.4681C17.2269 17.4681 17.417 17.3897 17.5575 17.25L22.3275 12.48C22.3917 12.4184 22.4428 12.3445 22.4777 12.2626C22.5126 12.1808 22.5306 12.0927 22.5306 12.0038C22.5306 11.9148 22.5126 11.8267 22.4777 11.7449C22.4428 11.663 22.3917 11.5891 22.3275 11.5275L17.565 6.75C17.4953 6.6797 17.4123 6.62391 17.3209 6.58583C17.2296 6.54776 17.1315 6.52815 17.0325 6.52815C16.9335 6.52815 16.8355 6.54776 16.7441 6.58583C16.6527 6.62391 16.5697 6.6797 16.5 6.75Z" fill="white"/>
</svg>
