<svg width="18" height="18" viewBox="0 0 18 18" fill="none" xmlns="http://www.w3.org/2000/svg">
<g clip-path="url(#clip0_13_90)">
<path d="M4.65848 4.76168C4.42918 4.57125 4.13379 4.47936 3.83693 4.50613C3.54007 4.53289 3.26589 4.67613 3.07434 4.9045L0.262013 8.2793C0.0927574 8.48129 0 8.73642 0 8.99995C0 9.26349 0.0927574 9.51861 0.262013 9.72061L3.07434 13.0954C3.16869 13.2097 3.2847 13.3042 3.4157 13.3736C3.54671 13.4429 3.69012 13.4856 3.8377 13.4993C3.98528 13.5131 4.13412 13.4975 4.27565 13.4535C4.41718 13.4095 4.54862 13.3379 4.66241 13.2429C4.7762 13.148 4.87009 13.0314 4.93869 12.9001C5.0073 12.7687 5.04925 12.625 5.06215 12.4774C5.07505 12.3297 5.05864 12.181 5.01386 12.0397C4.96908 11.8984 4.89682 11.7674 4.80122 11.6541L2.58878 8.99999L4.80128 6.34585C4.99234 6.11681 5.08463 5.82127 5.05785 5.5242C5.03107 5.22714 4.88742 4.95286 4.65848 4.76168Z" fill="#969696"/>
<path d="M10.3446 2.27234C10.0524 2.21702 9.75015 2.27855 9.50282 2.44372C9.25548 2.60889 9.08283 2.8645 9.02197 3.15562L6.7721 14.4049C6.74292 14.5498 6.74263 14.699 6.77127 14.8439C6.7999 14.9889 6.85689 15.1268 6.93896 15.2497C7.02103 15.3726 7.12656 15.4781 7.2495 15.56C7.37244 15.642 7.51036 15.6989 7.65535 15.7275C7.72836 15.7425 7.80273 15.7499 7.87726 15.7495C8.13707 15.7491 8.38872 15.6587 8.5894 15.4937C8.79009 15.3286 8.92741 15.0992 8.97802 14.8444L11.2279 3.59502C11.2571 3.45015 11.2574 3.30094 11.2287 3.15596C11.2001 3.01098 11.1431 2.87308 11.0611 2.75018C10.979 2.62728 10.8734 2.5218 10.7505 2.4398C10.6276 2.3578 10.4896 2.30089 10.3446 2.27234Z" fill="#969696"/>
<path d="M17.738 8.2793L14.9257 4.90451C14.8313 4.7902 14.7153 4.69567 14.5843 4.62635C14.4533 4.55702 14.3099 4.51428 14.1623 4.50057C14.0147 4.48685 13.8659 4.50245 13.7244 4.54645C13.5828 4.59046 13.4514 4.662 13.3376 4.75697C13.2238 4.85195 13.1299 4.96847 13.0613 5.09986C12.9927 5.23124 12.9508 5.37489 12.9379 5.52254C12.925 5.67019 12.9414 5.81894 12.9861 5.96023C13.0309 6.10151 13.1032 6.23256 13.1988 6.34582L15.4112 9L13.1987 11.6541C13.1031 11.7674 13.0309 11.8984 12.9861 12.0397C12.9413 12.181 12.9249 12.3298 12.9378 12.4774C12.9507 12.6251 12.9927 12.7687 13.0613 12.9001C13.1299 13.0315 13.2238 13.148 13.3375 13.243C13.4513 13.338 13.5828 13.4095 13.7243 13.4535C13.8658 13.4975 14.0147 13.5131 14.1623 13.4994C14.3098 13.4857 14.4532 13.4429 14.5843 13.3736C14.7153 13.3043 14.8313 13.2098 14.9256 13.0954L17.738 9.72062C17.9073 9.51862 18 9.26349 18 8.99996C18 8.73643 17.9073 8.4813 17.738 8.2793Z" fill="#969696"/>
</g>
<defs>
<clipPath id="clip0_13_90">
<rect width="18" height="18" fill="white"/>
</clipPath>
</defs>
</svg>
