<svg width="18" height="18" viewBox="0 0 18 18" fill="none" xmlns="http://www.w3.org/2000/svg">
<g clip-path="url(#clip0_13_72)">
<path d="M16.9706 15.1087L15.6672 13.9481C15.5706 13.8621 15.4458 13.8146 15.3165 13.8146H5.31595V5.31454H16.9706V15.1087ZM2.68345 10.7434C2.55418 10.7434 2.42938 10.7909 2.33281 10.8769L1.02939 12.0374V2.24329H12.684V4.25985H4.78861C4.49738 4.25985 4.26127 4.49596 4.26127 4.78719V10.7434H2.68345ZM17.4979 4.25985H13.7387V1.71594C13.7387 1.42471 13.5026 1.1886 13.2113 1.1886H0.502045C0.210775 1.1886 -0.0252991 1.42471 -0.0252991 1.71594V13.2131C-0.0252991 13.4208 0.0966577 13.6092 0.28622 13.6942C0.355443 13.7253 0.42892 13.7405 0.50194 13.7405C0.628854 13.7404 0.754185 13.6946 0.852693 13.6069L2.8842 11.7981H4.26127V14.342C4.26127 14.6332 4.49738 14.8693 4.78861 14.8693H15.1158L17.1473 16.6782C17.2458 16.7659 17.3711 16.8117 17.4981 16.8117C17.571 16.8117 17.6446 16.7965 17.7138 16.7655C17.9033 16.6804 18.0253 16.4921 18.0253 16.2843V4.78719C18.0253 4.49596 17.7892 4.25985 17.4979 4.25985Z" fill="#969696"/>
<path d="M8.73563 7.46473C8.73563 7.75596 8.97174 7.99207 9.26297 7.99207H14.7002C14.9915 7.99207 15.2276 7.75596 15.2276 7.46473C15.2276 7.17349 14.9915 6.93739 14.7002 6.93739H9.26297C8.97174 6.93739 8.73563 7.17349 8.73563 7.46473Z" fill="#969696"/>
<path d="M13.449 8.97257H9.263C8.97173 8.97257 8.73566 9.20868 8.73566 9.49992C8.73566 9.79115 8.97173 10.0273 9.263 10.0273H13.449C13.7403 10.0273 13.9764 9.79115 13.9764 9.49992C13.9764 9.20868 13.7403 8.97257 13.449 8.97257Z" fill="#969696"/>
<path d="M11.9816 11.0081H9.26297C8.97174 11.0081 8.73563 11.2442 8.73563 11.5355C8.73563 11.8267 8.97174 12.0628 9.26297 12.0628H11.9816C12.2728 12.0628 12.5089 11.8267 12.5089 11.5355C12.5089 11.2442 12.2728 11.0081 11.9816 11.0081Z" fill="#969696"/>
<path d="M7.58636 6.93739C7.29527 6.93739 7.05902 7.17328 7.05902 7.46473C7.05902 7.75582 7.29527 7.99172 7.58636 7.99172C7.87781 7.99172 8.11371 7.75582 8.11371 7.46473C8.11371 7.17328 7.87781 6.93739 7.58636 6.93739Z" fill="#969696"/>
<path d="M7.58636 10.9448C7.29527 10.9448 7.05902 11.1811 7.05902 11.4725C7.05902 11.7636 7.29527 11.9999 7.58636 11.9999C7.87781 11.9999 8.11371 11.7636 8.11371 11.4725C8.11371 11.1811 7.87781 10.9448 7.58636 10.9448Z" fill="#969696"/>
<path d="M7.58636 8.94094C7.29527 8.94094 7.05902 9.17719 7.05902 9.46828C7.05902 9.75973 7.29527 9.99598 7.58636 9.99598C7.87781 9.99598 8.11371 9.75973 8.11371 9.46828C8.11371 9.17719 7.87781 8.94094 7.58636 8.94094Z" fill="#969696"/>
</g>
<defs>
<clipPath id="clip0_13_72">
<rect width="18" height="18" fill="white"/>
</clipPath>
</defs>
</svg>
