<svg width="18" height="18" viewBox="0 0 18 18" fill="none" xmlns="http://www.w3.org/2000/svg">
<path d="M16.4625 3.5625H4.46249C4.04999 3.5625 3.71249 3.9 3.71249 4.3125V7.03125C3.91874 6.975 4.16249 6.9375 4.38749 6.9375C4.53749 6.9375 4.68749 6.95625 4.83749 6.975V4.6875H16.0875V11.8125H9.73124L8.66249 12.9375H16.4625C16.875 12.9375 17.2125 12.6 17.2125 12.1875V4.3125C17.2125 3.9 16.875 3.5625 16.4625 3.5625Z" fill="#969696"/>
<path d="M4.40624 10.875C5.28749 10.875 5.99999 10.1625 5.99999 9.28125C5.99999 8.4 5.28749 7.6875 4.40624 7.6875C3.52499 7.6875 2.81249 8.4 2.81249 9.28125C2.79374 10.1625 3.52499 10.875 4.40624 10.875Z" fill="#969696"/>
<path d="M10.5375 9.01875C10.2938 8.64375 9.80626 8.55 9.43126 8.775C9.35626 8.8125 9.31876 8.8875 9.28126 8.925L6.54376 11.775C6.28126 11.6438 6.00001 11.5313 5.71876 11.4375C5.28751 11.3625 4.83751 11.2688 4.40626 11.2688C3.97501 11.2688 3.52501 11.3438 3.09376 11.475C2.45626 11.6438 1.89376 11.9625 1.42501 12.3563C1.31251 12.4688 1.21876 12.6375 1.18126 12.7875L0.787506 14.4375H6.39376V14.4188L7.9875 12.5625L10.4438 9.975C10.6688 9.75 10.7438 9.31875 10.5375 9.01875Z" fill="#969696"/>
</svg>
