<svg width="16" height="16" viewBox="0 0 16 16" fill="none" xmlns="http://www.w3.org/2000/svg">
<path d="M14.114 10.2653L10.1727 3.69597C9.65533 2.83397 8.86399 2.34064 7.99999 2.34064C7.13599 2.34064 6.34466 2.83397 5.82733 3.69464L1.88599 10.2653C1.36199 11.138 1.30466 12.0686 1.72933 12.8186C2.15333 13.5693 2.98133 14 3.99999 14H12C13.0187 14 13.8467 13.5693 14.2707 12.8193C14.6953 12.0693 14.638 11.1386 14.114 10.2653ZM7.99999 11.6993C7.43066 11.6993 6.96666 11.236 6.96666 10.6666C6.96666 10.0966 7.42999 9.63264 7.99999 9.63264C8.56999 9.63264 9.03333 10.0966 9.03333 10.6666C9.03333 11.236 8.56933 11.6993 7.99999 11.6993ZM9.08866 6.74997C9.08133 6.77064 8.15466 9.06197 8.15466 9.06197C8.12933 9.12464 8.06799 9.16597 8.00066 9.16597C7.93333 9.16597 7.87199 9.12464 7.84666 9.06197L6.91933 6.76997C6.85933 6.61464 6.83333 6.47464 6.83333 6.3333C6.83333 5.68997 7.35666 5.16664 7.99999 5.16664C8.64333 5.16664 9.16666 5.68997 9.16666 6.3333C9.16666 6.47464 9.14066 6.61464 9.08866 6.74997Z" fill="#D62828"/>
</svg>
